<svg xmlns="http://www.w3.org/2000/svg" version="1.1" xmlns:xlink="http://www.w3.org/1999/xlink" xmlns:svgjs="http://svgjs.dev/svgjs" width="2000" height="611" viewBox="0 0 2000 611"><g transform="matrix(1,0,0,1,-1.212119069108553,0.8064794815022083)"><svg viewBox="0 0 396 121" data-background-color="#ffffff" preserveAspectRatio="xMidYMid meet" height="611" width="2000" xmlns="http://www.w3.org/2000/svg" xmlns:xlink="http://www.w3.org/1999/xlink"><g id="tight-bounds" transform="matrix(1,0,0,1,0.23999957568349828,-0.15971197587850838)"><svg viewBox="0 0 395.52 121.31942395175699" height="121.31942395175699" width="395.52"><g><svg viewBox="0 0 597.6922486129353 183.33252250746267" height="121.31942395175699" width="395.52"><g transform="matrix(1,0,0,1,202.1722486129353,51.76443704145937)"><svg viewBox="0 0 395.52 79.80364842454394" height="79.80364842454394" width="395.52"><g id="textblocktransform"><svg viewBox="0 0 395.52 79.80364842454394" height="79.80364842454394" width="395.52" id="textblock"><g><svg viewBox="0 0 395.52 79.80364842454394" height="79.80364842454394" width="395.52"><g transform="matrix(1,0,0,1,0,0)"><svg width="395.52" viewBox="1.850000023841858 -36.5 180.88999938964844 36.5" height="79.80364842454394" data-palette-color="#262626"><path d="M24.8-24.55L24.8-11.35 20.75-11.35 19.9-16.05 13.05-16.05 13.05-4.1 18.9-3.15 18.9 0 1.85 0 1.85-2.9 6.55-4.1 6.55-32.05 1.85-33.1 1.85-36 31.5-36 31.5-25.3 27.3-25.3 25.7-32.35 13.05-32.35 13.05-19.8 19.9-19.8 20.75-24.55 24.8-24.55ZM69.15-6.35L69.35-6.35 76.4-32.1 72.45-33.1 72.45-36 85.4-36 85.4-33.1 81.25-32.05 72 0 65.3 0 58.75-21.55 52.8 0 46.1 0 35.85-32.05 31.95-33.1 31.95-36 47.65-36 47.65-33.1 42.85-32.05 49.95-6.4 50.15-6.4 56.45-29.8 56-32.05 52.1-33.1 52.1-36 66.8-36 66.8-33.1 62.2-32.05 69.15-6.35ZM104-2.9L108.1-3.95 105.55-11.7 93.35-11.7 90.75-3.95 94.9-2.9 94.9 0 81.7 0 81.7-2.9 85.8-3.95 97.5-36.5 103.65-36.5 115.25-3.95 119.25-2.9 119.25 0 104 0 104-2.9ZM99.7-29.9L99.5-29.9 94.6-15.35 104.35-15.35 99.7-29.9ZM143.54-24.55L143.54-11.35 139.49-11.35 138.64-16.05 131.79-16.05 131.79-4.1 137.64-3.15 137.64 0 120.59 0 120.59-2.9 125.29-4.1 125.29-32.05 120.59-33.1 120.59-36 150.24-36 150.24-25.3 146.04-25.3 144.44-32.35 131.79-32.35 131.79-19.8 138.64-19.8 139.49-24.55 143.54-24.55ZM176.04-24.55L176.04-11.35 171.99-11.35 171.14-16.05 164.29-16.05 164.29-4.1 170.14-3.15 170.14 0 153.09 0 153.09-2.9 157.79-4.1 157.79-32.05 153.09-33.1 153.09-36 182.74-36 182.74-25.3 178.54-25.3 176.94-32.35 164.29-32.35 164.29-19.8 171.14-19.8 171.99-24.55 176.04-24.55Z" opacity="1" transform="matrix(1,0,0,1,0,0)" fill="#000000" class="undefined-text-0" data-fill-palette-color="primary" id="text-0"></path></svg></g></svg></g></svg></g></svg></g><g><svg viewBox="0 0 183.33252250746267 183.33252250746267" height="183.33252250746267" width="183.33252250746267"><g><svg></svg></g><g id="icon-0"><svg viewBox="0 0 183.33252250746267 183.33252250746267" height="183.33252250746267" width="183.33252250746267"><g><rect width="166.69679361326698" height="166.69679361326698" x="8.317864447097847" y="8.317864447097847" fill="#000000" data-fill-palette-color="accent"></rect><rect width="166.69679361326698" height="166.69679361326698" x="16.635728894195687" y="5.329070518200751e-15" fill="#000000" opacity="0.5" data-fill-palette-color="accent"></rect></g><g transform="matrix(1,0,0,1,39.125702008160765,23.765326991708122)"><svg viewBox="0 0 105.08111849114114 135.80186852404643" height="135.80186852404643" width="105.08111849114114"><g><svg xmlns="http://www.w3.org/2000/svg" xmlns:xlink="http://www.w3.org/1999/xlink" version="1.1" x="0" y="0" viewBox="12.982999801635742 1 75.68599700927734 97.81300354003906" enable-background="new 0 0 100 100" xml:space="preserve" height="135.80186852404643" width="105.08111849114114" class="icon-s-0" data-fill-palette-color="background" id="s-0"><g fill="#ffffff" data-fill-palette-color="background"><polygon fill-rule="evenodd" clip-rule="evenodd" points="12.983,10.59 30.001,98.813 24.129,39.764 53.15,37.872 53.096,27.989    64.549,1 53.622,18.977  " fill="#ffffff" data-fill-palette-color="background"></polygon><polygon fill-rule="evenodd" clip-rule="evenodd" points="59.389,54.548 64.549,1.007 55.809,40.723 36.197,41.768 37.767,62.23    30.001,98.813 42.058,58.914  " fill="#ffffff" data-fill-palette-color="background"></polygon><polygon fill-rule="evenodd" clip-rule="evenodd" points="62.8,67.182 63.349,56.729 47.37,60.484 47.338,72.281 30.001,98.813    51.681,71.197  " fill="#ffffff" data-fill-palette-color="background"></polygon><polygon fill-rule="evenodd" clip-rule="evenodd" points="65.711,62.394 80.552,57.663 82.061,45.131 66.162,47.226  " fill="#ffffff" data-fill-palette-color="background"></polygon><polygon fill-rule="evenodd" clip-rule="evenodd" points="72.07,44.502 83.058,43.085 84.639,32.807 76.56,32.434 64.549,1    72.979,31.967  " fill="#ffffff" data-fill-palette-color="background"></polygon><polygon fill-rule="evenodd" clip-rule="evenodd" points="87.413,31.294 88.669,21.788 79.125,19.094 64.549,1 79.032,23.437    78.61,30.437  " fill="#ffffff" data-fill-palette-color="background"></polygon></g></svg></g></svg></g></svg></g></svg></g></svg></g><defs></defs></svg><rect width="395.52" height="121.31942395175699" fill="none" stroke="none" visibility="hidden"></rect></g></svg></g></svg>